<?xml version="1.0" encoding="UTF-8" standalone="no"?>
<!DOCTYPE svg PUBLIC "-//W3C//DTD SVG 1.1//EN"
 "http://www.w3.org/Graphics/SVG/1.1/DTD/svg11.dtd">
<!-- Generated by graphviz version 2.40.1 (20161225.0304)
 -->
<!-- Title: %3 Pages: 1 -->
<svg
 viewBox="0.00 0.00 1500.00 650.00" xmlns="http://www.w3.org/2000/svg" xmlns:xlink="http://www.w3.org/1999/xlink">
<g id="graph0" class="graph" transform="scale(4.1667 4.1667) rotate(0) translate(4 152)">
<title>%3</title>
<polygon fill="#ffffff" stroke="transparent" points="-4,4 -4,-152 357,-152 357,4 -4,4"/>
<!-- table0 -->
<g id="node1" class="node">
<title>table0</title>
<polyline fill="none" stroke="#000000" points="8,-124 80,-124 "/>
<text text-anchor="start" x="41.2759" y="-129.8" font-family="Times,serif" font-size="14.00" fill="#000000">s</text>
<polygon fill="none" stroke="#000000" points="8,-104 8,-124 44,-124 44,-104 8,-104"/>
<text text-anchor="start" x="10.8413" y="-109.8" font-family="Times,serif" font-size="14.00" fill="#000000">name</text>
<polygon fill="none" stroke="#000000" points="44,-104 44,-124 80,-124 80,-104 44,-104"/>
<text text-anchor="start" x="46.8413" y="-109.8" font-family="Times,serif" font-size="14.00" fill="#000000">value</text>
<polygon fill="none" stroke="#000000" points="8,-84 8,-104 44,-104 44,-84 8,-84"/>
<text text-anchor="start" x="18.2241" y="-89.8" font-family="Times,serif" font-size="14.00" fill="#000000">ptr</text>
<polygon fill="none" stroke="#000000" points="44,-84 44,-104 80,-104 80,-84 44,-84"/>
</g>
<!-- table1 -->
<g id="node2" class="node">
<title>table1</title>
<polyline fill="none" stroke="#000000" points="132,-124 220,-124 "/>
<text text-anchor="start" x="169.7759" y="-129.8" font-family="Times,serif" font-size="14.00" fill="#000000">s1</text>
<polygon fill="none" stroke="#000000" points="132,-104 132,-124 184,-124 184,-104 132,-104"/>
<text text-anchor="start" x="142.8413" y="-109.8" font-family="Times,serif" font-size="14.00" fill="#000000">name</text>
<polygon fill="none" stroke="#000000" points="184,-104 184,-124 220,-124 220,-104 184,-104"/>
<text text-anchor="start" x="186.8413" y="-109.8" font-family="Times,serif" font-size="14.00" fill="#000000">value</text>
<polygon fill="none" stroke="#000000" points="132,-84 132,-104 184,-104 184,-84 132,-84"/>
<text text-anchor="start" x="150.2241" y="-89.8" font-family="Times,serif" font-size="14.00" fill="#000000">ptr</text>
<polygon fill="none" stroke="#000000" points="184,-84 184,-104 220,-104 220,-84 184,-84"/>
<polygon fill="none" stroke="#000000" points="132,-64 132,-84 184,-84 184,-64 132,-64"/>
<text text-anchor="start" x="149.4482" y="-69.8" font-family="Times,serif" font-size="14.00" fill="#000000">len</text>
<polygon fill="none" stroke="#000000" points="184,-64 184,-84 220,-84 220,-64 184,-64"/>
<text text-anchor="start" x="198.5" y="-69.8" font-family="Times,serif" font-size="14.00" fill="#000000">5</text>
<polygon fill="none" stroke="#000000" points="132,-44 132,-64 184,-64 184,-44 132,-44"/>
<text text-anchor="start" x="134.6826" y="-49.8" font-family="Times,serif" font-size="14.00" fill="#000000">capacity</text>
<polygon fill="none" stroke="#000000" points="184,-44 184,-64 220,-64 220,-44 184,-44"/>
<text text-anchor="start" x="198.5" y="-49.8" font-family="Times,serif" font-size="14.00" fill="#000000">5</text>
</g>
<!-- table0&#45;&gt;table1 -->
<g id="edge2" class="edge">
<title>table0:c&#45;&gt;table1:borrowee</title>
<path fill="none" stroke="#000000" d="M62,-94C62,-94 93.1184,-94 121.9514,-94"/>
<polygon fill="#000000" stroke="#000000" points="122,-97.5001 132,-94 122,-90.5001 122,-97.5001"/>
</g>
<!-- table2 -->
<g id="node3" class="node">
<title>table2</title>
<polygon fill="none" stroke="#000000" points="272.5,-104 272.5,-124 309.5,-124 309.5,-104 272.5,-104"/>
<text text-anchor="start" x="275.4482" y="-109.8" font-family="Times,serif" font-size="14.00" fill="#000000">index</text>
<polygon fill="none" stroke="#000000" points="309.5,-104 309.5,-124 345.5,-124 345.5,-104 309.5,-104"/>
<text text-anchor="start" x="312.3413" y="-109.8" font-family="Times,serif" font-size="14.00" fill="#000000">value</text>
<polygon fill="none" stroke="#000000" points="272.5,-84 272.5,-104 309.5,-104 309.5,-84 272.5,-84"/>
<text text-anchor="start" x="287.5" y="-89.8" font-family="Times,serif" font-size="14.00" fill="#000000">0</text>
<polygon fill="none" stroke="#000000" points="309.5,-84 309.5,-104 345.5,-104 345.5,-84 309.5,-84"/>
<text text-anchor="start" x="324" y="-89.8" font-family="Times,serif" font-size="14.00" fill="#000000">h</text>
<polygon fill="none" stroke="#000000" points="272.5,-64 272.5,-84 309.5,-84 309.5,-64 272.5,-64"/>
<text text-anchor="start" x="287.5" y="-69.8" font-family="Times,serif" font-size="14.00" fill="#000000">1</text>
<polygon fill="none" stroke="#000000" points="309.5,-64 309.5,-84 345.5,-84 345.5,-64 309.5,-64"/>
<text text-anchor="start" x="324.3931" y="-69.8" font-family="Times,serif" font-size="14.00" fill="#000000">e</text>
<polygon fill="none" stroke="#000000" points="272.5,-44 272.5,-64 309.5,-64 309.5,-44 272.5,-44"/>
<text text-anchor="start" x="287.5" y="-49.8" font-family="Times,serif" font-size="14.00" fill="#000000">2</text>
<polygon fill="none" stroke="#000000" points="309.5,-44 309.5,-64 345.5,-64 345.5,-44 309.5,-44"/>
<text text-anchor="start" x="325.5552" y="-49.8" font-family="Times,serif" font-size="14.00" fill="#000000">l</text>
<polygon fill="none" stroke="#000000" points="272.5,-24 272.5,-44 309.5,-44 309.5,-24 272.5,-24"/>
<text text-anchor="start" x="287.5" y="-29.8" font-family="Times,serif" font-size="14.00" fill="#000000">3</text>
<polygon fill="none" stroke="#000000" points="309.5,-24 309.5,-44 345.5,-44 345.5,-24 309.5,-24"/>
<text text-anchor="start" x="325.5552" y="-29.8" font-family="Times,serif" font-size="14.00" fill="#000000">l</text>
<polygon fill="none" stroke="#000000" points="272.5,-4 272.5,-24 309.5,-24 309.5,-4 272.5,-4"/>
<text text-anchor="start" x="287.5" y="-9.8" font-family="Times,serif" font-size="14.00" fill="#000000">4</text>
<polygon fill="none" stroke="#000000" points="309.5,-4 309.5,-24 345.5,-24 345.5,-4 309.5,-4"/>
<text text-anchor="start" x="324" y="-9.8" font-family="Times,serif" font-size="14.00" fill="#000000">o</text>
</g>
<!-- table1&#45;&gt;table2 -->
<g id="edge1" class="edge">
<title>table1:c&#45;&gt;table2:pointee</title>
<path fill="none" stroke="#000000" d="M202,-94C202,-94 233.3406,-94 262.3797,-94"/>
<polygon fill="#000000" stroke="#000000" points="262.5,-97.5001 272.5,-94 262.5,-90.5001 262.5,-97.5001"/>
</g>
</g>
</svg>
