<?xml version="1.0" encoding="utf-8"?>
<!-- Generator: Adobe Illustrator 15.1.0, SVG Export Plug-In . SVG Version: 6.00 Build 0)  -->
<!DOCTYPE svg PUBLIC "-//W3C//DTD SVG 1.1//EN" "http://www.w3.org/Graphics/SVG/1.1/DTD/svg11.dtd">
<svg version="1.1" id="Layer_1" xmlns="http://www.w3.org/2000/svg" xmlns:xlink="http://www.w3.org/1999/xlink" x="0px" y="0px"
	 width="1354px" height="819px" viewBox="0 0 1354 819" enable-background="new 0 0 1354 819" xml:space="preserve">
<!--<rect fill="#FFFFFF" width="1354" height="819"/>-->
<path fill="#8F1F1D" d="M803.403,312.05c-131.633,0-251.228,15.825-339.77,41.615v220.298
	c88.542,25.79,208.137,41.614,339.77,41.614c150.657,0,285.535-20.729,376.134-53.402V365.457
	C1088.938,332.781,954.06,312.05,803.403,312.05"/>
<path fill="#8F1F1D" d="M1185.423,511.442c-3.856-10.663-4.629-24.154-1.36-37.162c5.85-23.289,22.421-36.198,37.013-28.833
	c3.618,1.827,6.773,4.73,9.387,8.418c0.239-0.001,0.479,0,0.715,0.016c0,0,44.552,53.106,3.313,116.003
	c-0.896,3.569-76.534,91.718-94.043,94.524C1128.987,666.244,1155.338,574.41,1185.423,511.442"/>
<path fill="#8F1F1D" d="M454.479,501.021c5.3-9.631,7.158-22.788,4.217-36.426c-5.266-24.416-23.91-41.109-41.642-37.285
	c-4.398,0.948-8.325,3.072-11.666,6.099c-0.282-0.059-0.564-0.113-0.845-0.153c0,0-56.292,41.952-12.057,113.924
	c0.805,3.741,83.851,108.838,104.311,115.764C510.188,667.475,485.55,570.418,454.479,501.021"/>
<path fill="#E23A26" d="M375.467,507.066l0.007,0.015C375.659,507.226,375.831,507.357,375.467,507.066"/>
<path fill="#E33B26" d="M1271.119,431.903c-0.88-3.064-1.756-6.126-2.662-9.162l30.683-44.451c3.13-4.522,3.771-10.398,1.73-15.555
	c-2.04-5.13-6.49-8.81-11.76-9.71l-51.887-8.805c-2.008-4.102-4.115-8.142-6.229-12.15l21.797-49.903
	c2.243-5.087,1.769-10.995-1.203-15.608c-2.961-4.636-7.99-7.344-13.349-7.133l-52.656,1.913c-2.727-3.55-5.496-7.068-8.322-10.521
	l12.102-53.49c1.225-5.433-0.322-11.118-4.104-15.064c-3.762-3.932-9.229-5.559-14.426-4.283l-51.289,12.608
	c-3.321-2.935-6.699-5.833-10.114-8.673l1.849-54.914c0.197-5.559-2.394-10.842-6.845-13.925
	c-4.445-3.104-10.093-3.573-14.955-1.266l-47.848,22.747c-3.854-2.21-7.728-4.4-11.644-6.517l-8.455-54.115
	c-0.857-5.483-4.386-10.139-9.326-12.266c-4.923-2.137-10.568-1.447-14.891,1.808l-42.659,32.007
	c-4.2-1.395-8.419-2.732-12.692-4.011l-18.386-51.316c-1.87-5.229-6.182-9.071-11.438-10.151c-5.238-1.072-10.63,0.742-14.263,4.802
	L861.97,74.97c-4.342-0.5-8.685-0.956-13.043-1.331l-27.723-46.713c-2.811-4.732-7.771-7.612-13.116-7.612
	c-5.334,0-10.304,2.88-13.09,7.612l-27.733,46.713c-4.358,0.375-8.722,0.831-13.056,1.331l-35.91-40.171
	c-3.636-4.06-9.047-5.874-14.268-4.802c-5.255,1.092-9.573,4.922-11.433,10.151l-18.402,51.316
	c-4.26,1.279-8.481,2.627-12.691,4.011l-42.644-32.007c-4.336-3.266-9.98-3.955-14.916-1.808c-4.919,2.127-8.461,6.783-9.313,12.266
	l-8.461,54.115c-3.914,2.117-7.789,4.294-11.653,6.517l-47.842-22.747c-4.858-2.316-10.529-1.838-14.954,1.266
	c-4.445,3.083-7.042,8.366-6.84,13.925l1.835,54.914c-3.405,2.84-6.774,5.738-10.112,8.673l-51.279-12.608
	c-5.211-1.265-10.67,0.351-14.441,4.283c-3.795,3.946-5.332,9.631-4.113,15.064l12.079,53.49c-2.802,3.467-5.575,6.971-8.293,10.521
	l-52.655-1.913c-5.314-0.157-10.386,2.497-13.356,7.133c-2.974,4.613-3.425,10.521-1.211,15.608l21.814,49.903
	c-2.119,4.008-4.224,8.048-6.249,12.15l-51.882,8.805c-5.271,0.888-9.715,4.566-11.765,9.71c-2.037,5.157-1.375,11.033,1.735,15.555
	l30.69,44.451c-0.236,0.784-0.455,1.576-0.69,2.364l-16.863,17.911l45.341,64.05c0,0,435.152,200.731,838.797,3.396
	C1260.372,502.189,1271.119,431.903,1271.119,431.903"/>
<path d="M886.303,395.759c0,0,48.157-52.729,96.315,0c0,0,37.84,70.312,0,105.463c0,0-61.917,49.218-96.315,0
	C886.303,501.222,845.024,462.55,886.303,395.759"/>
<path fill="#FFFFFF" d="M942.057,415.32c0,20.532-12.103,37.179-27.029,37.179c-14.924,0-27.027-16.646-27.027-37.179
	s12.104-37.18,27.027-37.18C929.954,378.14,942.057,394.788,942.057,415.32"/>
<path d="M671.365,381.361c0,0,82.608-36.576,105.154,45.062c0,0,23.618,95.154-67.837,100.525
	C708.682,526.948,592.06,504.486,671.365,381.361"/>
<rect x="278" y="19" fill="none" width="1060" height="782"/>
<g>
	<defs>
		<rect id="SVGID_1_" x="278.06" y="19.314" width="1059.75" height="781.686"/>
	</defs>
	<clipPath id="SVGID_2_">
		<use xlink:href="#SVGID_1_"  overflow="visible"/>
	</clipPath>
	<path clip-path="url(#SVGID_2_)" fill="#FFFFFF" d="M712.855,416.668c0,21.173-12.48,38.346-27.877,38.346
		c-15.391,0-27.874-17.173-27.874-38.346c0-21.178,12.483-38.346,27.874-38.346C700.375,378.322,712.855,395.49,712.855,416.668"/>
	<path clip-path="url(#SVGID_2_)" fill="#E33B26" d="M389.602,518.216c10.967-12.463,37.611-27.557,35.57-46.282
		c-3.653-33.526-31.456-57.999-62.099-54.658c-7.599,0.827-14.658,3.292-20.923,7.035c-0.463-0.106-0.925-0.211-1.388-0.294
		c0,0-103.632,50.873-44.564,152.657c0.557,5.137,117.847,155.668,150.787,167.131C468.544,751.307,427.074,615.165,389.602,518.216
		"/>
	<path clip-path="url(#SVGID_2_)" fill="#E33B26" d="M1231.549,513.673c-12.692-10.7-46.162-20.418-46.92-39.238
		c-1.355-33.697,22.512-62.021,53.312-63.26c7.638-0.308,14.983,1.083,21.734,3.857c0.442-0.174,0.884-0.347,1.329-0.497
		c0,0,110.025,34.951,66.695,144.366c0.21,5.163-93.468,171.416-124.345,187.635
		C1183.146,757.151,1208.861,615.105,1231.549,513.673"/>
</g>
<rect x="278" y="19" fill="none" width="1060" height="782"/>
<path fill="#E33B26" d="M1154.362,514.558c0,0,1.382,137.296-133.167,167.933l-28.055-56.363c0,0,97.495,9.431,104.995-111.569
	H1154.362"/>
<path fill="#E33B26" d="M1057.167,654.591c-20.25-48.941-85.595-68.373-145.951-43.399c-53.126,21.98-84.637,71.031-77.624,115.845
	c41.946-0.652,86.94-3.371,130.736-9.718c0,0-25.837,41.763-63.857,78.211c25.566,6.599,55.383,4.768,84.076-7.104
	C1044.904,763.452,1077.417,703.532,1057.167,654.591"/>
<g>
	<path fill="#E33B26" d="M396.635,512.763c0,0-120.426,65.951-210.88-38.262l36.479-51.313c0,0,37.649,90.426,147.893,39.991
		L396.635,512.763"/>
	<path fill="#E33B26" d="M144.038,392.655c0,0-46.915-29.995-114.487-63.65C3.436,369.241,14.735,430.034,58.509,471.979
		c48.361,46.34,118.025,52.115,155.601,12.901c37.576-39.214,28.833-108.569-19.528-154.908
		c-21.437-20.543-47.061-33.103-72.221-37.316C140.333,341.359,144.038,392.655,144.038,392.655"/>
</g>
<rect x="278.06" y="19.314" fill="none" width="1059.75" height="781.686"/>
</svg>
